<?xml version="1.0" encoding="utf-8"?>
<!-- Generator: Adobe Illustrator 27.6.1, SVG Export Plug-In . SVG Version: 6.00 Build 0)  -->
<svg version="1.1" id="Layer_1" xmlns="http://www.w3.org/2000/svg" xmlns:xlink="http://www.w3.org/1999/xlink" x="0px" y="0px"
	 viewBox="0 0 616.68 465.2" style="enable-background:new 0 0 616.68 465.2;" xml:space="preserve">
<style type="text/css">
	.st0{fill:#010101;}
	.st1{fill:#FFFFFF;}
</style>
<path class="st0" d="M372.47,48.65c0,0-244.87-258.58-372.47,416.55h396.93l0.15-0.03c0,0-89.76-291.02-7.86-347.22
	c81.9-56.2,227.17-59.52,227.17-59.52S634.97,5.49,372.47,48.65z"/>
<ellipse class="st1" cx="292.81" cy="106.71" rx="36.72" ry="33.82"/>
<g>
	<path class="st0" d="M372.47,48.65c0,0-244.87-258.58-372.47,416.55h396.93l0.15-0.03c0,0-89.76-291.02-7.86-347.22
		c81.9-56.2,227.17-59.52,227.17-59.52S634.97,5.49,372.47,48.65z"/>
	<ellipse class="st1" cx="292.81" cy="106.71" rx="36.72" ry="33.82"/>
	<path class="st0" d="M354.09,114.74c5.57,1.29,7.96,1.85,13.52,3.14c19.31,19.4,42.64,40.29,70.37,60.91
		c32.28,23.99,63.63,42.47,91.89,56.72c9.33,4.71,10.55,14.98,1.63,13.56c-34.16-5.41-77.25-16.68-122.93-40.26
		c-32.2-16.63-57.99-35.4-77.73-52.21c-1.3-3.71-2.2-6.27-3.5-9.97C336.26,136,345.18,125.37,354.09,114.74z"/>
</g>
</svg>
